<svg width="40" height="40" viewBox="0 0 40 40" fill="none" xmlns="http://www.w3.org/2000/svg">
<path fill-rule="evenodd" clip-rule="evenodd" d="M5.66655 2.80859C15.1985 2.80859 24.7304 2.80859 34.2534 2.80859C34.7393 5.67971 34.1121 8.54193 33.4319 11.3953C34.6068 17.1997 34.439 22.9242 33.4319 28.5864C34.3064 31.3242 34.4831 34.213 34.2534 37.173C24.7215 37.173 15.1896 37.173 5.66655 37.173C5.41036 34.2397 5.66655 31.3686 6.48811 28.5864C5.43686 22.853 5.37502 17.1197 6.48811 11.3953C5.9404 8.63971 5.4987 5.80415 5.66655 2.80859Z" fill="#FBC800"/>
<path fill-rule="evenodd" clip-rule="evenodd" d="M32.4955 37.1912H5.66655C5.41036 34.2578 5.66655 31.3867 6.48811 28.6045C5.43686 22.8712 5.37502 17.1378 6.48811 11.4134C6.00224 8.95115 5.60471 6.45338 5.63121 3.82227C21.3999 9.1556 28.9884 20.8089 32.4955 37.1912Z" fill="#EFBF0B"/>
<path d="M34.3511 0H5.66699V2.80889H34.3511V0Z" fill="#E6B142"/>
<path d="M34.3511 37.1914H5.66699V40.0003H34.3511V37.1914Z" fill="#E6B142"/>
<path fill-rule="evenodd" clip-rule="evenodd" d="M20.0039 11.1289C24.8626 11.1289 28.8203 15.1111 28.8203 20.0089C28.8203 24.8978 24.8626 28.88 20.0039 28.88C15.1364 28.88 11.1787 24.8978 11.1787 20.0089C11.1787 15.1022 15.1364 11.1289 20.0039 11.1289Z" fill="#A55F1F"/>
<path fill-rule="evenodd" clip-rule="evenodd" d="M20.0037 12.3203C24.1998 12.3203 27.6274 15.7603 27.6274 20.0003C27.6274 24.2225 24.2087 27.6714 20.0037 27.6714C15.7899 27.6714 12.3711 24.2314 12.3711 20.0003C12.3711 15.7692 15.7899 12.3203 20.0037 12.3203Z" fill="#EAEBEB"/>
<path fill-rule="evenodd" clip-rule="evenodd" d="M14.8631 18.1326C14.2094 17.9638 13.7677 18.026 13.9444 18.8438C14.5981 20.6126 17.0098 22.6838 20.1282 21.7771C20.0045 21.1638 19.2006 20.3193 19.077 19.706C18.3614 19.4126 17.637 19.1104 16.9126 18.8171C16.2236 18.5771 15.5345 18.346 14.8631 18.1326Z" fill="#DEB204"/>
<path fill-rule="evenodd" clip-rule="evenodd" d="M14.8623 18.1325C20.4101 19.2881 20.2422 17.057 22.9896 16.8436C24.5621 16.7636 25.5515 17.5192 26.002 19.1014C26.6557 21.8214 24.3059 23.8659 21.6203 22.9414C19.4825 22.2214 17.91 19.5281 14.8623 18.1325Z" fill="#FBC800"/>
</svg>
